<svg xmlns="http://www.w3.org/2000/svg" xmlns:xlink="http://www.w3.org/1999/xlink" width="1920" zoomAndPan="magnify" viewBox="0 0 1440 809.999993" height="1080" preserveAspectRatio="xMidYMid meet" version="1.0"><rect x="-144" width="1728" fill="#ffffff" y="-80.999999" height="971.999992" fill-opacity="1"/><rect x="-144" width="1728" fill="#ffffff" y="-80.999999" height="971.999992" fill-opacity="1"/><path fill="#0c4363" d="M 1198.324219 502.019531 C 1201.375 502.042969 1204.292969 502.671875 1207.082031 503.910156 L 1263.996094 525.789062 C 1272.335938 529.148438 1276.507812 533.949219 1276.507812 540.191406 C 1276.433594 542.105469 1276.085938 543.964844 1275.460938 545.777344 C 1274.835938 547.585938 1273.960938 549.265625 1272.839844 550.816406 C 1267.304688 559.273438 1261.253906 567.34375 1254.6875 575.027344 C 1248.117188 582.707031 1241.085938 589.941406 1233.59375 596.722656 C 1226.101562 603.503906 1218.203125 609.78125 1209.90625 615.554688 C 1201.609375 621.324219 1192.976562 626.542969 1184.011719 631.210938 C 1174.976562 635.945312 1165.683594 640.109375 1156.132812 643.707031 C 1146.585938 647.304688 1136.855469 650.304688 1126.9375 652.710938 C 1117.023438 655.113281 1107 656.90625 1096.863281 658.082031 C 1086.730469 659.261719 1076.5625 659.816406 1066.359375 659.75 C 1055.652344 659.828125 1044.980469 659.21875 1034.351562 657.917969 C 1023.722656 656.617188 1013.222656 654.636719 1002.851562 651.980469 C 992.476562 649.320312 982.320312 646.003906 972.375 642.03125 C 962.433594 638.058594 952.785156 633.460938 943.4375 628.238281 C 934.1875 623.132812 925.304688 617.445312 916.792969 611.183594 C 908.28125 604.921875 900.214844 598.132812 892.585938 590.820312 C 884.957031 583.507812 877.835938 575.730469 871.21875 567.488281 C 864.605469 559.25 858.550781 550.617188 853.058594 541.585938 C 847.625 532.683594 842.828125 523.449219 838.667969 513.882812 C 834.507812 504.316406 831.027344 494.507812 828.226562 484.460938 C 825.425781 474.414062 823.328125 464.222656 821.933594 453.882812 C 820.539062 443.546875 819.867188 433.160156 819.910156 422.730469 C 819.867188 412.359375 820.542969 402.039062 821.9375 391.765625 C 823.332031 381.488281 825.429688 371.359375 828.234375 361.378906 C 831.035156 351.394531 834.515625 341.652344 838.675781 332.15625 C 842.832031 322.65625 847.625 313.492188 853.058594 304.660156 C 858.503906 295.628906 864.519531 286.992188 871.097656 278.75 C 877.675781 270.507812 884.765625 262.730469 892.363281 255.414062 C 899.960938 248.101562 908.007812 241.316406 916.496094 235.058594 C 924.984375 228.800781 933.84375 223.125 943.078125 218.03125 C 947.617188 215.496094 952.226562 213.101562 956.914062 210.855469 C 961.601562 208.605469 966.351562 206.503906 971.167969 204.550781 C 975.988281 202.59375 980.859375 200.792969 985.789062 199.140625 C 990.71875 197.488281 995.691406 195.992188 1000.714844 194.648438 C 1005.734375 193.308594 1010.792969 192.121094 1015.890625 191.09375 C 1020.984375 190.0625 1026.105469 189.195312 1031.257812 188.484375 C 1036.40625 187.773438 1041.570312 187.222656 1046.753906 186.832031 C 1051.9375 186.441406 1057.128906 186.210938 1062.328125 186.144531 C 1067.523438 186.078125 1072.71875 186.171875 1077.910156 186.425781 C 1083.105469 186.679688 1088.28125 187.09375 1093.449219 187.671875 C 1098.613281 188.246094 1103.757812 188.980469 1108.878906 189.878906 C 1114 190.773438 1119.085938 191.824219 1124.140625 193.035156 C 1129.195312 194.246094 1134.210938 195.613281 1139.179688 197.136719 C 1144.152344 198.65625 1149.070312 200.332031 1153.933594 202.160156 C 1158.800781 203.988281 1163.605469 205.964844 1168.351562 208.089844 C 1173.09375 210.214844 1177.765625 212.484375 1182.371094 214.902344 C 1191.300781 219.539062 1199.917969 224.695312 1208.226562 230.371094 C 1216.535156 236.050781 1224.46875 242.207031 1232.03125 248.84375 C 1239.59375 255.480469 1246.730469 262.546875 1253.441406 270.046875 C 1260.148438 277.546875 1266.382812 285.421875 1272.140625 293.675781 C 1273.277344 295.222656 1274.167969 296.898438 1274.808594 298.707031 C 1275.449219 300.519531 1275.8125 302.382812 1275.898438 304.296875 C 1275.898438 310.554688 1271.917969 315.371094 1263.996094 318.703125 L 1207.082031 340.578125 C 1204.082031 341.859375 1200.957031 342.492188 1197.695312 342.46875 C 1191.441406 342.46875 1186.023438 339.550781 1181.449219 333.714844 C 1174.15625 324.917969 1166.0625 316.941406 1157.160156 309.777344 C 1148.261719 302.617188 1138.734375 296.417969 1128.582031 291.175781 C 1119 286.078125 1108.949219 282.195312 1098.425781 279.527344 C 1087.902344 276.863281 1077.214844 275.496094 1066.359375 275.421875 C 1059.949219 275.390625 1053.5625 275.792969 1047.207031 276.628906 C 1040.851562 277.464844 1034.582031 278.726562 1028.398438 280.417969 C 1022.210938 282.109375 1016.171875 284.210938 1010.273438 286.726562 C 1004.375 289.238281 998.675781 292.140625 993.171875 295.429688 C 987.609375 298.710938 982.285156 302.335938 977.191406 306.304688 C 972.097656 310.273438 967.285156 314.554688 962.746094 319.148438 C 958.207031 323.738281 953.980469 328.605469 950.074219 333.742188 C 946.164062 338.882812 942.601562 344.253906 939.386719 349.851562 C 937.761719 352.589844 936.226562 355.375 934.785156 358.214844 C 933.34375 361.054688 932 363.9375 930.753906 366.867188 C 929.503906 369.796875 928.355469 372.765625 927.308594 375.769531 C 926.257812 378.773438 925.308594 381.8125 924.460938 384.882812 C 923.617188 387.949219 922.871094 391.042969 922.230469 394.164062 C 921.589844 397.28125 921.054688 400.417969 920.625 403.570312 C 920.195312 406.726562 919.871094 409.890625 919.652344 413.066406 C 919.429688 416.242188 919.316406 419.421875 919.3125 422.605469 C 919.304688 425.792969 919.402344 428.972656 919.609375 432.148438 C 919.816406 435.324219 920.125 438.492188 920.542969 441.648438 C 920.960938 444.804688 921.480469 447.941406 922.109375 451.066406 C 922.734375 454.1875 923.464844 457.28125 924.300781 460.355469 C 925.132812 463.429688 926.066406 466.46875 927.105469 469.480469 C 928.140625 472.488281 929.277344 475.460938 930.511719 478.394531 C 931.746094 481.332031 933.078125 484.21875 934.507812 487.066406 C 935.933594 489.910156 937.457031 492.703125 939.070312 495.449219 C 942.257812 501.015625 945.792969 506.351562 949.679688 511.457031 C 953.5625 516.566406 957.757812 521.398438 962.273438 525.957031 C 966.785156 530.515625 971.574219 534.761719 976.640625 538.695312 C 981.707031 542.632812 987.007812 546.222656 992.542969 549.464844 C 998.058594 552.867188 1003.789062 555.871094 1009.726562 558.46875 C 1015.664062 561.070312 1021.753906 563.242188 1027.996094 564.992188 C 1034.238281 566.738281 1040.574219 568.042969 1046.996094 568.902344 C 1053.421875 569.761719 1059.875 570.171875 1066.359375 570.125 C 1071.953125 570.085938 1077.527344 569.722656 1083.082031 569.042969 C 1088.636719 568.363281 1094.132812 567.367188 1099.574219 566.054688 C 1105.015625 564.742188 1110.359375 563.121094 1115.613281 561.195312 C 1120.867188 559.269531 1125.996094 557.050781 1130.996094 554.539062 C 1135.996094 552.023438 1140.832031 549.230469 1145.511719 546.164062 C 1150.191406 543.09375 1154.679688 539.765625 1158.976562 536.183594 C 1163.273438 532.597656 1167.351562 528.777344 1171.210938 524.726562 C 1175.070312 520.671875 1178.683594 516.414062 1182.054688 511.945312 C 1187.074219 505.375 1192.476562 502.019531 1198.324219 502.019531 Z M 1198.324219 502.019531 " fill-opacity="1" fill-rule="nonzero"/><path fill="#0ad03c" d="M 1021.304688 376.792969 C 1022.609375 377.265625 1023.800781 377.761719 1024.90625 378.277344 L 1024.90625 346.566406 C 1024.882812 345.070312 1025.015625 343.589844 1025.300781 342.125 C 1025.585938 340.65625 1026.019531 339.234375 1026.601562 337.855469 C 1027.183594 336.480469 1027.898438 335.175781 1028.75 333.949219 C 1029.601562 332.71875 1030.570312 331.589844 1031.65625 330.5625 C 1032.75 329.480469 1033.941406 328.515625 1035.226562 327.667969 C 1036.515625 326.824219 1037.875 326.117188 1039.304688 325.546875 C 1040.738281 324.976562 1042.210938 324.554688 1043.726562 324.28125 C 1045.242188 324.007812 1046.769531 323.890625 1048.308594 323.925781 C 1050.347656 323.953125 1052.351562 324.242188 1054.316406 324.785156 C 1056.28125 325.332031 1058.144531 326.117188 1059.910156 327.144531 C 1061.671875 328.171875 1063.273438 329.40625 1064.71875 330.847656 C 1066.160156 332.289062 1067.398438 333.890625 1068.429688 335.652344 C 1070.476562 339.121094 1071.503906 342.871094 1071.511719 346.902344 L 1071.511719 464.390625 C 1071.550781 466.445312 1071.3125 468.46875 1070.796875 470.460938 C 1070.28125 472.453125 1069.507812 474.335938 1068.472656 476.117188 C 1067.488281 477.820312 1066.289062 479.355469 1064.878906 480.730469 C 1063.46875 482.101562 1061.898438 483.257812 1060.167969 484.195312 C 1056.46875 486.199219 1052.515625 487.167969 1048.308594 487.097656 L 1028.933594 475.84375 L 1028.933594 476.632812 C 1027.246094 478.425781 1025.390625 480.015625 1023.363281 481.410156 C 1021.335938 482.804688 1019.183594 483.964844 1016.90625 484.894531 C 1014.628906 485.824219 1012.277344 486.503906 1009.855469 486.925781 C 1007.433594 487.351562 1004.992188 487.515625 1002.535156 487.414062 C 999.101562 487.355469 995.695312 487.015625 992.316406 486.402344 C 989.605469 485.910156 986.945312 485.207031 984.34375 484.296875 C 981.738281 483.386719 979.222656 482.28125 976.796875 480.972656 C 974.367188 479.664062 972.054688 478.175781 969.863281 476.503906 C 967.667969 474.832031 965.617188 473 963.714844 471.007812 C 959.6875 466.859375 956.351562 462.210938 953.703125 457.070312 C 951.058594 451.929688 949.21875 446.515625 948.1875 440.824219 C 947.53125 437.0625 947.191406 433.277344 947.171875 429.457031 C 947.140625 425.109375 947.621094 420.820312 948.613281 416.585938 C 950.449219 408.703125 953.75 401.496094 958.515625 394.957031 C 963.054688 388.730469 968.691406 383.742188 975.417969 379.988281 C 979.296875 377.730469 983.40625 376.015625 987.742188 374.847656 C 992.078125 373.679688 996.492188 373.097656 1000.980469 373.101562 C 1007.960938 373.207031 1014.734375 374.4375 1021.304688 376.792969 Z M 993.78125 429.953125 C 993.671875 432.390625 994.027344 434.753906 994.851562 437.050781 C 995.671875 439.34375 996.898438 441.398438 998.527344 443.210938 C 999.261719 444.027344 1000.070312 444.757812 1000.960938 445.402344 C 1001.847656 446.046875 1002.796875 446.585938 1003.800781 447.027344 C 1004.808594 447.464844 1005.847656 447.792969 1006.925781 448.007812 C 1008.003906 448.21875 1009.089844 448.316406 1010.1875 448.296875 C 1012.078125 448.289062 1013.898438 447.929688 1015.652344 447.222656 C 1017.40625 446.511719 1018.96875 445.507812 1020.335938 444.199219 C 1021.816406 442.667969 1023.011719 440.9375 1023.917969 439.011719 C 1024.828125 437.085938 1025.40625 435.0625 1025.648438 432.949219 L 1025.648438 426.195312 C 1024.148438 418.347656 1019.992188 413.660156 1013.179688 412.128906 C 1011.980469 411.90625 1010.773438 411.773438 1009.554688 411.722656 C 1007.671875 411.691406 1005.855469 412.023438 1004.101562 412.714844 C 1002.351562 413.410156 1000.800781 414.414062 999.453125 415.730469 C 997.972656 417.195312 996.765625 418.859375 995.832031 420.71875 C 994.894531 422.578125 994.28125 424.539062 993.984375 426.601562 C 993.8125 427.710938 993.746094 428.828125 993.78125 429.953125 Z M 993.78125 429.953125 " fill-opacity="1" fill-rule="nonzero"/><path fill="#0ad03c" d="M 1126.894531 373.597656 C 1130.324219 372.855469 1133.789062 372.421875 1137.292969 372.292969 C 1139.6875 372.21875 1142.0625 372.378906 1144.425781 372.773438 C 1146.789062 373.167969 1149.089844 373.789062 1151.328125 374.636719 C 1153.566406 375.484375 1155.703125 376.542969 1157.734375 377.8125 C 1159.765625 379.078125 1161.652344 380.53125 1163.398438 382.171875 L 1163.398438 382.78125 L 1182.863281 372.695312 C 1184.671875 371.582031 1186.636719 371.050781 1188.761719 371.097656 C 1190.371094 371.070312 1191.910156 371.378906 1193.382812 372.023438 C 1194.859375 372.667969 1196.128906 373.589844 1197.199219 374.789062 C 1198.605469 376.113281 1199.859375 377.566406 1200.957031 379.152344 C 1202.058594 380.738281 1202.980469 382.421875 1203.726562 384.199219 C 1204.472656 385.980469 1205.027344 387.816406 1205.386719 389.714844 C 1205.746094 391.609375 1205.90625 393.523438 1205.863281 395.449219 L 1205.863281 464.660156 C 1205.917969 466.183594 1205.8125 467.699219 1205.550781 469.203125 C 1205.289062 470.707031 1204.871094 472.164062 1204.304688 473.582031 C 1203.738281 475 1203.03125 476.339844 1202.179688 477.609375 C 1201.332031 478.878906 1200.363281 480.046875 1199.269531 481.113281 C 1198.167969 482.171875 1196.972656 483.109375 1195.683594 483.929688 C 1194.394531 484.75 1193.039062 485.4375 1191.613281 485.984375 C 1190.1875 486.535156 1188.71875 486.9375 1187.214844 487.191406 C 1185.707031 487.445312 1184.191406 487.550781 1182.664062 487.503906 L 1163.398438 476.925781 L 1163.398438 477.914062 C 1156.992188 484.441406 1148.367188 487.707031 1137.519531 487.707031 C 1133.453125 487.660156 1129.425781 487.253906 1125.433594 486.492188 C 1118.675781 485.160156 1112.457031 482.550781 1106.777344 478.660156 C 1100.496094 474.4375 1095.246094 469.183594 1091.023438 462.902344 C 1088.011719 457.976562 1085.761719 452.726562 1084.273438 447.148438 C 1082.664062 440.933594 1081.914062 434.617188 1082.023438 428.199219 C 1082.222656 423.757812 1082.902344 419.394531 1084.058594 415.105469 C 1085.214844 410.816406 1086.824219 406.703125 1088.886719 402.765625 C 1090.828125 398.992188 1093.160156 395.480469 1095.882812 392.226562 C 1098.605469 388.972656 1101.652344 386.054688 1105.019531 383.476562 C 1108.230469 380.996094 1111.683594 378.921875 1115.378906 377.25 C 1119.074219 375.582031 1122.914062 374.363281 1126.894531 373.597656 Z M 1128.628906 431.148438 C 1128.597656 433.375 1128.945312 435.542969 1129.671875 437.648438 C 1130.398438 439.757812 1131.460938 441.679688 1132.859375 443.414062 C 1133.550781 444.28125 1134.328125 445.058594 1135.195312 445.75 C 1136.0625 446.4375 1136.996094 447.019531 1137.996094 447.496094 C 1138.996094 447.972656 1140.039062 448.328125 1141.121094 448.566406 C 1142.203125 448.804688 1143.296875 448.917969 1144.40625 448.90625 C 1147.230469 448.878906 1149.847656 448.128906 1152.257812 446.652344 C 1154.789062 445.175781 1156.722656 443.136719 1158.066406 440.53125 C 1159.269531 438.738281 1160.019531 436.773438 1160.316406 434.636719 C 1160.449219 433.105469 1160.519531 430.988281 1160.519531 428.242188 C 1159.484375 421.402344 1156.257812 416.78125 1150.839844 414.378906 C 1148.75 413.378906 1146.542969 412.851562 1144.222656 412.804688 C 1142.390625 412.773438 1140.625 413.105469 1138.925781 413.796875 C 1137.222656 414.488281 1135.726562 415.484375 1134.433594 416.789062 C 1132.996094 418.234375 1131.820312 419.871094 1130.90625 421.695312 C 1129.988281 423.515625 1129.378906 425.4375 1129.078125 427.457031 C 1129.078125 428.132812 1128.945312 428.695312 1128.921875 429.210938 C 1128.859375 429.863281 1128.761719 430.507812 1128.628906 431.148438 Z M 1128.628906 431.148438 " fill-opacity="1" fill-rule="nonzero"/><path fill="#0ad03c" d="M 1336.933594 435.039062 C 1336.933594 436.707031 1336.851562 438.367188 1336.6875 440.027344 C 1336.523438 441.683594 1336.28125 443.328125 1335.957031 444.964844 C 1335.628906 446.597656 1335.226562 448.210938 1334.742188 449.804688 C 1334.257812 451.398438 1333.699219 452.964844 1333.0625 454.503906 C 1332.421875 456.042969 1331.710938 457.550781 1330.925781 459.019531 C 1330.140625 460.488281 1329.285156 461.914062 1328.359375 463.300781 C 1327.4375 464.683594 1326.445312 466.019531 1325.386719 467.308594 C 1324.332031 468.597656 1323.214844 469.828125 1322.035156 471.007812 C 1320.859375 472.1875 1319.625 473.304688 1318.335938 474.359375 C 1317.050781 475.417969 1315.714844 476.40625 1314.328125 477.332031 C 1312.945312 478.257812 1311.515625 479.113281 1310.046875 479.898438 C 1308.578125 480.683594 1307.074219 481.394531 1305.535156 482.035156 C 1303.996094 482.671875 1302.429688 483.230469 1300.835938 483.714844 C 1299.242188 484.199219 1297.628906 484.601562 1295.996094 484.929688 C 1294.359375 485.253906 1292.714844 485.496094 1291.058594 485.660156 C 1289.398438 485.824219 1287.738281 485.90625 1286.070312 485.90625 C 1284.40625 485.90625 1282.746094 485.824219 1281.085938 485.660156 C 1279.429688 485.496094 1277.785156 485.253906 1276.148438 484.929688 C 1274.515625 484.601562 1272.902344 484.199219 1271.308594 483.714844 C 1269.714844 483.230469 1268.148438 482.671875 1266.609375 482.035156 C 1265.070312 481.394531 1263.566406 480.683594 1262.097656 479.898438 C 1260.628906 479.113281 1259.199219 478.257812 1257.816406 477.332031 C 1256.429688 476.40625 1255.09375 475.417969 1253.804688 474.359375 C 1252.519531 473.304688 1251.285156 472.1875 1250.109375 471.007812 C 1248.929688 469.828125 1247.8125 468.597656 1246.757812 467.308594 C 1245.699219 466.019531 1244.707031 464.683594 1243.78125 463.300781 C 1242.855469 461.914062 1242.003906 460.488281 1241.214844 459.019531 C 1240.429688 457.550781 1239.71875 456.042969 1239.082031 454.503906 C 1238.445312 452.964844 1237.886719 451.398438 1237.402344 449.804688 C 1236.917969 448.210938 1236.511719 446.597656 1236.1875 444.964844 C 1235.863281 443.328125 1235.621094 441.683594 1235.457031 440.027344 C 1235.292969 438.367188 1235.210938 436.707031 1235.210938 435.039062 C 1235.210938 433.375 1235.292969 431.710938 1235.457031 430.054688 C 1235.621094 428.398438 1235.863281 426.75 1236.1875 425.117188 C 1236.511719 423.484375 1236.917969 421.871094 1237.402344 420.273438 C 1237.886719 418.679688 1238.445312 417.113281 1239.082031 415.574219 C 1239.71875 414.035156 1240.429688 412.53125 1241.21875 411.0625 C 1242.003906 409.59375 1242.855469 408.167969 1243.78125 406.78125 C 1244.707031 405.394531 1245.699219 404.058594 1246.757812 402.773438 C 1247.8125 401.484375 1248.929688 400.25 1250.109375 399.074219 C 1251.285156 397.894531 1252.519531 396.777344 1253.804688 395.722656 C 1255.09375 394.664062 1256.429688 393.671875 1257.816406 392.746094 C 1259.199219 391.820312 1260.628906 390.964844 1262.097656 390.179688 C 1263.566406 389.394531 1265.070312 388.683594 1266.609375 388.046875 C 1268.148438 387.410156 1269.714844 386.847656 1271.308594 386.367188 C 1272.902344 385.882812 1274.515625 385.476562 1276.148438 385.152344 C 1277.785156 384.828125 1279.429688 384.582031 1281.085938 384.421875 C 1282.746094 384.257812 1284.40625 384.175781 1286.070312 384.175781 C 1287.738281 384.175781 1289.398438 384.257812 1291.058594 384.421875 C 1292.714844 384.582031 1294.359375 384.828125 1295.996094 385.152344 C 1297.628906 385.476562 1299.242188 385.882812 1300.835938 386.367188 C 1302.429688 386.847656 1303.996094 387.410156 1305.535156 388.046875 C 1307.074219 388.683594 1308.578125 389.394531 1310.046875 390.179688 C 1311.515625 390.964844 1312.945312 391.820312 1314.328125 392.746094 C 1315.714844 393.671875 1317.050781 394.664062 1318.335938 395.722656 C 1319.625 396.777344 1320.859375 397.894531 1322.035156 399.074219 C 1323.214844 400.25 1324.332031 401.484375 1325.386719 402.773438 C 1326.445312 404.058594 1327.4375 405.394531 1328.359375 406.78125 C 1329.285156 408.167969 1330.140625 409.59375 1330.925781 411.0625 C 1331.710938 412.53125 1332.421875 414.035156 1333.0625 415.574219 C 1333.699219 417.113281 1334.257812 418.679688 1334.742188 420.273438 C 1335.226562 421.871094 1335.628906 423.484375 1335.957031 425.117188 C 1336.28125 426.75 1336.523438 428.398438 1336.6875 430.054688 C 1336.851562 431.710938 1336.933594 433.375 1336.933594 435.039062 Z M 1336.933594 435.039062 " fill-opacity="1" fill-rule="nonzero"/></svg>