<svg id="Capa_1" data-name="Capa 1" xmlns="http://www.w3.org/2000/svg" viewBox="0 0 284.94 269.62"><defs><style>.cls-1{fill:#0c4363;}.cls-2{fill:#0ad03c;}</style></defs><path class="cls-1" d="M200.89,168.92a9.74,9.74,0,0,1,3.89.84l25.29,9.72q5.56,2.24,5.56,6.4A8.61,8.61,0,0,1,234,190.6a105.22,105.22,0,0,1-39.47,35.72A111.08,111.08,0,0,1,142.25,239a110.33,110.33,0,0,1-54.62-14,108.23,108.23,0,0,1-40.16-38.5,100.55,100.55,0,0,1-14.73-52.81A99.38,99.38,0,0,1,47.47,81.23a107.2,107.2,0,0,1,40-38.49A111.65,111.65,0,0,1,193.8,41.35a111,111,0,0,1,39.89,35,8.63,8.63,0,0,1,1.67,4.72c0,2.78-1.77,4.92-5.29,6.4l-25.29,9.72a10.43,10.43,0,0,1-4.17.84q-4.17,0-7.22-3.89a75.45,75.45,0,0,0-23.49-18.9,59.71,59.71,0,0,0-27.65-7,62.75,62.75,0,0,0-32.52,8.89,66.52,66.52,0,0,0-23.9,24.18A63.53,63.53,0,0,0,85.69,166a65.61,65.61,0,0,0,23.76,24,61.69,61.69,0,0,0,32.8,9.18,65,65,0,0,0,51.41-25.85C195.89,170.41,198.29,168.92,200.89,168.92Z"/><path class="cls-2" d="M122.23,113.28c.58.21,1.11.43,1.6.66V99.85a9.6,9.6,0,0,1,3-7.11,10.18,10.18,0,0,1,7.4-2.95A10.53,10.53,0,0,1,143.17,95a9.87,9.87,0,0,1,1.37,5v52.2a10,10,0,0,1-1.35,5.21A9.49,9.49,0,0,1,139.5,161a10.71,10.71,0,0,1-5.27,1.29l-8.61-5v.35a15.25,15.25,0,0,1-11.73,4.79,28,28,0,0,1-4.54-.45,23.32,23.32,0,0,1-12.71-6.84,25.9,25.9,0,0,1-6.9-13.41,30.23,30.23,0,0,1-.45-5.05,24.27,24.27,0,0,1,.64-5.72,26.52,26.52,0,0,1,4.4-9.61,23.43,23.43,0,0,1,7.51-6.65,22.55,22.55,0,0,1,11.36-3.06A28,28,0,0,1,122.23,113.28ZM110,136.9a8.26,8.26,0,0,0,2.11,5.89,6.78,6.78,0,0,0,5.18,2.26,6.58,6.58,0,0,0,4.51-1.82,8.61,8.61,0,0,0,2.36-5v-3q-1-5.23-5.54-6.25a11.29,11.29,0,0,0-1.61-.18,6.28,6.28,0,0,0-4.49,1.78,8.51,8.51,0,0,0-2.43,4.83A8.19,8.19,0,0,0,110,136.9Z"/><path class="cls-2" d="M169.15,111.86a26.48,26.48,0,0,1,4.62-.58,16.22,16.22,0,0,1,11.6,4.39v.27l8.65-4.48a4.78,4.78,0,0,1,2.62-.71,4.91,4.91,0,0,1,3.75,1.64,12.25,12.25,0,0,1,3.85,9.18v30.75a9.74,9.74,0,0,1-2.93,7.31,10.19,10.19,0,0,1-7.38,2.84l-8.56-4.7v.44q-4.27,4.35-11.5,4.35a30.47,30.47,0,0,1-5.37-.54,22.3,22.3,0,0,1-8.29-3.48,25.73,25.73,0,0,1-7-7,26.56,26.56,0,0,1-3-7,31.55,31.55,0,0,1-1-8.42,27,27,0,0,1,3.05-11.3,25.48,25.48,0,0,1,7.17-8.57A23,23,0,0,1,169.15,111.86Zm.77,25.57a8.49,8.49,0,0,0,1.88,5.45,6.46,6.46,0,0,0,5.13,2.44,6.82,6.82,0,0,0,3.49-1A6.7,6.7,0,0,0,183,141.6a6.22,6.22,0,0,0,1-2.62c.06-.68.09-1.62.09-2.84q-.69-4.56-4.3-6.16a7.15,7.15,0,0,0-2.94-.7,6,6,0,0,0-4.35,1.77,8.51,8.51,0,0,0-2.38,4.74c0,.3-.06.55-.07.78A7.86,7.86,0,0,1,169.92,137.43Z"/><circle class="cls-2" cx="239.88" cy="139.16" r="22.6"/></svg>